<svg width="1859" height="968" viewBox="0 0 1859 968" fill="none" xmlns="http://www.w3.org/2000/svg">
<path d="M37.6406 775V193.182H446.732V320.455H195.595V420.455H421.732V547.727H195.595V775H37.6406ZM475.101 775V338.636H631.919V775H475.101ZM553.51 293.182C532.298 293.182 514.116 286.174 498.964 272.159C483.813 258.144 476.237 241.288 476.237 221.591C476.237 201.894 483.813 185.038 498.964 171.023C514.116 157.008 532.298 150 553.51 150C574.911 150 593.093 157.008 608.055 171.023C623.207 185.038 630.783 201.894 630.783 221.591C630.783 241.288 623.207 258.144 608.055 272.159C593.093 286.174 574.911 293.182 553.51 293.182ZM836.638 529.545V775H679.82V338.636H828.683V421.591H833.229C842.698 393.939 859.365 372.254 883.229 356.534C907.282 340.814 935.312 332.955 967.32 332.955C998.191 332.955 1024.99 340.057 1047.72 354.261C1070.63 368.277 1088.34 387.595 1100.84 412.216C1113.53 436.837 1119.78 464.962 1119.59 496.591V775H962.774V529.545C962.964 507.955 957.471 491.004 946.297 478.693C935.312 466.383 919.971 460.227 900.274 460.227C887.395 460.227 876.126 463.068 866.467 468.75C856.998 474.242 849.706 482.197 844.592 492.614C839.479 502.841 836.827 515.152 836.638 529.545ZM1322.96 780.682C1291.9 780.682 1263.3 772.538 1237.17 756.25C1211.22 739.962 1190.39 715.246 1174.67 682.102C1159.14 648.958 1151.37 607.197 1151.37 556.818C1151.37 504.167 1159.51 461.364 1175.8 428.409C1192.28 395.455 1213.49 371.307 1239.44 355.966C1265.58 340.625 1293.04 332.955 1321.83 332.955C1343.42 332.955 1362.36 336.742 1378.64 344.318C1394.93 351.705 1408.57 361.648 1419.55 374.148C1430.54 386.458 1438.87 400 1444.55 414.773H1446.83V193.182H1603.64V775H1447.96V703.409H1444.55C1438.49 718.182 1429.78 731.439 1418.42 743.182C1407.24 754.735 1393.61 763.92 1377.51 770.739C1361.6 777.367 1343.42 780.682 1322.96 780.682ZM1380.92 660.227C1395.31 660.227 1407.62 656.061 1417.85 647.727C1428.26 639.205 1436.22 627.273 1441.71 611.932C1447.39 596.402 1450.23 578.03 1450.23 556.818C1450.23 535.227 1447.39 516.761 1441.71 501.42C1436.22 485.89 1428.26 474.053 1417.85 465.909C1407.62 457.576 1395.31 453.409 1380.92 453.409C1366.52 453.409 1354.21 457.576 1343.98 465.909C1333.95 474.053 1326.18 485.89 1320.69 501.42C1315.39 516.761 1312.73 535.227 1312.73 556.818C1312.73 578.409 1315.39 596.97 1320.69 612.5C1326.18 627.841 1333.95 639.678 1343.98 648.011C1354.21 656.155 1366.52 660.227 1380.92 660.227ZM1733.86 784.091C1711.89 784.091 1693.04 776.42 1677.33 761.08C1661.79 745.549 1654.12 726.705 1654.31 704.545C1654.12 682.955 1661.79 664.489 1677.33 649.148C1693.04 633.807 1711.89 626.136 1733.86 626.136C1754.69 626.136 1773.06 633.807 1788.97 649.148C1805.07 664.489 1813.22 682.955 1813.4 704.545C1813.22 719.318 1809.33 732.765 1801.76 744.886C1794.37 756.818 1784.71 766.383 1772.78 773.58C1760.85 780.587 1747.87 784.091 1733.86 784.091Z" fill="#F94DAF"/>
</svg>
